<svg width="25" height="25" viewBox="0 0 25 25" fill="none" xmlns="http://www.w3.org/2000/svg">
<path d="M20.0827 12.9161L20.4363 12.5625L20.0827 12.2089L17.9681 10.0944C17.8613 9.98754 17.8613 9.80412 17.9681 9.6973C18.075 9.59048 18.2584 9.59048 18.3652 9.6973L21.0319 12.364C21.1387 12.4708 21.1387 12.6542 21.0319 12.761L18.3652 15.4277C18.3076 15.4852 18.2391 15.5104 18.1667 15.5104C18.0942 15.5104 18.0257 15.4852 17.9681 15.4277C17.8613 15.3209 17.8613 15.1375 17.9681 15.0306L20.0827 12.9161Z" fill="#252525" stroke="white"/>
<path d="M20.7604 12.8438H10.1667C10.0157 12.8438 9.88542 12.7134 9.88542 12.5625C9.88542 12.4116 10.0157 12.2812 10.1667 12.2812H20.7604C20.9114 12.2812 21.0417 12.4116 21.0417 12.5625C21.0417 12.7134 20.9114 12.8438 20.7604 12.8438Z" fill="#252525" stroke="white"/>
<path d="M12.25 21.1146C9.68731 21.1146 7.54003 20.221 6.03455 18.7155C4.52906 17.21 3.63542 15.0627 3.63542 12.5C3.63542 9.93732 4.52906 7.79005 6.03455 6.28456C7.54003 4.77908 9.68731 3.88544 12.25 3.88544C12.4009 3.88544 12.5313 4.01575 12.5313 4.16669C12.5313 4.31763 12.4009 4.44794 12.25 4.44794C9.90666 4.44794 7.88719 5.26771 6.45244 6.70246C5.01769 8.13721 4.19792 10.1567 4.19792 12.5C4.19792 14.8434 5.01769 16.8628 6.45244 18.2976C7.88719 19.7323 9.90666 20.5521 12.25 20.5521C12.4009 20.5521 12.5313 20.6824 12.5313 20.8334C12.5313 20.9843 12.4009 21.1146 12.25 21.1146Z" fill="#292D32" stroke="white"/>
</svg>
