<svg width="25" height="25" viewBox="0 0 25 25" fill="none" xmlns="http://www.w3.org/2000/svg">
<path d="M21.875 6.22916C18.4062 5.88541 14.9167 5.70833 11.4375 5.70833C9.375 5.70833 7.3125 5.8125 5.25 6.02083L3.125 6.22916" stroke="white" stroke-width="1.5" stroke-linecap="round" stroke-linejoin="round"/>
<path d="M8.85417 5.17708L9.08334 3.81249C9.25001 2.82291 9.375 2.08333 11.1354 2.08333H13.8646C15.625 2.08333 15.7604 2.86458 15.9167 3.82291L16.1458 5.17708" stroke="white" stroke-width="1.5" stroke-linecap="round" stroke-linejoin="round"/>
<path d="M19.6354 9.52083L18.9583 20.0104C18.8437 21.6458 18.75 22.9167 15.8437 22.9167H9.15624C6.24999 22.9167 6.15624 21.6458 6.04166 20.0104L5.36458 9.52083" stroke="white" stroke-width="1.5" stroke-linecap="round" stroke-linejoin="round"/>
<path d="M10.7604 17.1875H14.2292" stroke="white" stroke-width="1.5" stroke-linecap="round" stroke-linejoin="round"/>
<path d="M9.89583 13.0208H15.1042" stroke="white" stroke-width="1.5" stroke-linecap="round" stroke-linejoin="round"/>
</svg>
