<svg width="30" height="30" viewBox="0 0 30 30" fill="none" xmlns="http://www.w3.org/2000/svg">
<path d="M20 15.6805H10C9.4875 15.6805 9.0625 15.2623 9.0625 14.7581C9.0625 14.2538 9.4875 13.8357 10 13.8357H20C20.5125 13.8357 20.9375 14.2538 20.9375 14.7581C20.9375 15.2623 20.5125 15.6805 20 15.6805Z" fill="#8F9BB3"/>
<path d="M15 20.5998C14.4875 20.5998 14.0625 20.1816 14.0625 19.6774V9.8387C14.0625 9.33447 14.4875 8.91632 15 8.91632C15.5125 8.91632 15.9375 9.33447 15.9375 9.8387V19.6774C15.9375 20.1816 15.5125 20.5998 15 20.5998Z" fill="#8F9BB3"/>
<path d="M18.75 27.9788H11.25C4.4625 27.9788 1.5625 25.1256 1.5625 18.4476V11.0685C1.5625 4.39052 4.4625 1.53729 11.25 1.53729H18.75C25.5375 1.53729 28.4375 4.39052 28.4375 11.0685V18.4476C28.4375 25.1256 25.5375 27.9788 18.75 27.9788ZM11.25 3.38205C5.4875 3.38205 3.4375 5.39899 3.4375 11.0685V18.4476C3.4375 24.1171 5.4875 26.1341 11.25 26.1341H18.75C24.5125 26.1341 26.5625 24.1171 26.5625 18.4476V11.0685C26.5625 5.39899 24.5125 3.38205 18.75 3.38205H11.25Z" fill="#8F9BB3"/>
</svg>
