<svg width="25" height="25" viewBox="0 0 25 25" fill="none" xmlns="http://www.w3.org/2000/svg">
<path d="M12.5 13.8229C12.3491 13.8229 12.2188 13.6926 12.2188 13.5417V8.07291C12.2188 7.92197 12.3491 7.79166 12.5 7.79166C12.6509 7.79166 12.7812 7.92197 12.7812 8.07291V13.5417C12.7812 13.6926 12.6509 13.8229 12.5 13.8229Z" stroke="white"/>
<path d="M12.5 17.4687C12.3509 17.4687 12.2224 17.417 12.123 17.3219C12.0733 17.2648 12.0295 17.1985 11.9875 17.117C11.9695 17.0681 11.9583 17.0053 11.9583 16.9271C11.9583 16.7946 12.0161 16.6473 12.1185 16.5365C12.2034 16.4544 12.3403 16.3984 12.5 16.3984C12.6597 16.3984 12.7965 16.4544 12.8815 16.5365C12.9839 16.6473 13.0417 16.7946 13.0417 16.9271C13.0417 16.9866 13.0276 17.0567 12.9968 17.1306C12.9687 17.1979 12.9296 17.2614 12.877 17.3219C12.7775 17.417 12.6491 17.4687 12.5 17.4687Z" stroke="white"/>
<path d="M10.7209 22.7243L10.719 22.7232L4.53337 19.1514C4.53307 19.1512 4.53277 19.1511 4.53247 19.1509C3.43471 18.5101 2.75017 17.33 2.75017 16.0625V8.93749C2.75017 7.66996 3.43468 6.4899 4.5324 5.84911C4.53272 5.84892 4.53304 5.84873 4.53337 5.84854L10.719 2.27674L10.7209 2.27563C11.8145 1.63765 13.1749 1.6366 14.2811 2.27654L14.2814 2.27674L20.467 5.84854C20.4674 5.84875 20.4677 5.84895 20.4681 5.84916C21.5658 6.48996 22.2502 7.67 22.2502 8.93749V16.0625C22.2502 17.33 21.5657 18.51 20.468 19.1508C20.4677 19.151 20.4674 19.1512 20.467 19.1514L14.2814 22.7232L14.2795 22.7243C13.7354 23.0417 13.1148 23.1979 12.5002 23.1979C11.8856 23.1979 11.265 23.0417 10.7209 22.7243ZM11.0034 2.76305L11.0034 2.76304L11.0002 2.7649L4.81265 6.33781L4.81147 6.33849C3.88807 6.87506 3.31267 7.86185 3.31267 8.93749V16.0625C3.31267 17.1265 3.88707 18.1243 4.81147 18.6615L4.81265 18.6621L10.999 22.2344C10.9991 22.2345 10.9993 22.2345 10.9994 22.2346C11.9238 22.7715 13.074 22.7736 13.9916 22.234C13.9923 22.2336 13.9929 22.2332 13.9936 22.2329L20.1773 18.6621L20.1785 18.6615C21.1019 18.1249 21.6773 17.1381 21.6773 16.0625V8.93749C21.6773 7.87342 21.1029 6.87565 20.1785 6.33849L20.1773 6.33781L13.9917 2.76601C13.9914 2.76581 13.991 2.76561 13.9907 2.76542C13.5377 2.5014 13.0133 2.36456 12.5002 2.36456C11.9857 2.36456 11.4632 2.50205 11.0034 2.76305Z" stroke="white"/>
</svg>
