<svg width="24" height="20" viewBox="0 0 24 20" fill="none" xmlns="http://www.w3.org/2000/svg">
<path d="M1.6875 0.232428C1.40039 0.326178 0.908203 0.830084 0.820312 1.12891C0.726562 1.45704 0.726562 3.54297 0.820312 3.8711C0.914062 4.19336 1.40039 4.67969 1.72266 4.77344C1.91016 4.82618 4.29492 4.84376 12.0117 4.84376C23.3555 4.84376 22.4004 4.88477 22.8574 4.37501C22.998 4.22266 23.1445 3.98829 23.1797 3.85938C23.2734 3.54883 23.2734 1.45118 23.1797 1.14063C23.1445 1.01172 22.998 0.777349 22.8574 0.625006C22.4004 0.11524 23.3613 0.156256 11.9766 0.162115C4.80469 0.167974 1.83398 0.185553 1.6875 0.232428Z" fill="white"/>
<path d="M1.6875 7.73243C1.40039 7.82618 0.908203 8.33008 0.820312 8.62891C0.726562 8.95704 0.726562 11.043 0.820312 11.3711C0.914062 11.6934 1.40039 12.1797 1.72266 12.2734C1.91016 12.3262 4.29492 12.3438 12.0117 12.3438C23.3555 12.3438 22.4004 12.3848 22.8574 11.875C22.998 11.7227 23.1445 11.4883 23.1797 11.3594C23.2734 11.0488 23.2734 8.95118 23.1797 8.64063C23.1445 8.51172 22.998 8.27735 22.8574 8.12501C22.4004 7.61524 23.3613 7.65626 11.9766 7.66212C4.80469 7.66797 1.83398 7.68555 1.6875 7.73243Z" fill="white"/>
<path d="M1.6875 15.2324C1.40039 15.3262 0.908203 15.8301 0.820312 16.1289C0.726562 16.457 0.726562 18.543 0.820312 18.8711C0.914062 19.1934 1.40039 19.6797 1.72266 19.7734C1.91016 19.8262 4.29492 19.8438 12.0117 19.8438C23.3555 19.8438 22.4004 19.8848 22.8574 19.375C22.998 19.2227 23.1445 18.9883 23.1797 18.8594C23.2734 18.5488 23.2734 16.4512 23.1797 16.1406C23.1445 16.0117 22.998 15.7773 22.8574 15.625C22.4004 15.1152 23.3613 15.1563 11.9766 15.1621C4.80469 15.168 1.83398 15.1856 1.6875 15.2324Z" fill="white"/>
</svg>
