<svg width="25" height="25" viewBox="0 0 25 25" fill="none" xmlns="http://www.w3.org/2000/svg">
<path d="M12.5 15.9062C10.6199 15.9062 9.09375 14.3801 9.09375 12.5C9.09375 10.6199 10.6199 9.09375 12.5 9.09375C14.3801 9.09375 15.9062 10.6199 15.9062 12.5C15.9062 14.3801 14.3801 15.9062 12.5 15.9062ZM12.5 9.65625C10.9322 9.65625 9.65625 10.9322 9.65625 12.5C9.65625 14.0678 10.9322 15.3438 12.5 15.3438C14.0678 15.3438 15.3438 14.0678 15.3438 12.5C15.3438 10.9322 14.0678 9.65625 12.5 9.65625Z" stroke="white"/>
<path d="M14.4527 21.1255L14.4521 21.1245C13.9189 20.1984 13.1973 19.7604 12.5 19.7604C11.8048 19.7604 11.082 20.2064 10.547 21.126C10.5469 21.1261 10.5469 21.1262 10.5468 21.1264L10.4327 21.3234L10.429 21.3298L10.4251 21.3361C10.2306 21.6503 9.92078 21.9068 9.52998 22.0053C9.17021 22.0984 8.77236 22.054 8.43249 21.8468L6.63707 20.8194L6.63015 20.8154L6.62336 20.8112C6.25211 20.5828 5.96902 20.2306 5.85021 19.7851C5.73369 19.3481 5.79068 18.8886 6.01482 18.5001L6.0157 18.4986C6.54745 17.5844 6.56764 16.7277 6.22212 16.123C5.87928 15.5231 5.1312 15.1146 4.06249 15.1146C3.11686 15.1146 2.36458 14.3462 2.36458 13.4166V11.5833C2.36458 10.6405 3.11969 9.88539 4.06249 9.88539C5.1312 9.88539 5.87928 9.47687 6.22212 8.8769C6.56764 8.27225 6.54745 7.41559 6.0157 6.50136L6.01482 6.49984C5.79068 6.11132 5.73369 5.65183 5.85021 5.21489C5.9692 4.76868 6.26491 4.4013 6.64597 4.18146L8.4466 3.14064C8.44681 3.14052 8.44701 3.1404 8.44722 3.14028C9.13348 2.74174 10.0196 2.97905 10.4192 3.65048L10.4236 3.6578L10.4277 3.66526L10.5398 3.86919C11.0728 4.79246 11.7933 5.22914 12.4896 5.22914C13.1869 5.22914 13.9085 4.79116 14.4417 3.86507L14.4423 3.86404L14.5569 3.66612L14.5591 3.66226L14.5591 3.66227C14.9655 2.97449 15.862 2.72681 16.5551 3.1416L18.3525 4.17017L18.3594 4.17413L18.3662 4.17831C18.7375 4.40677 19.0206 4.75895 19.1394 5.20447C19.2559 5.64142 19.1989 6.10091 18.9748 6.48942L18.9739 6.49094C18.4421 7.40517 18.4219 8.26183 18.7675 8.86649C19.1103 9.46645 19.8584 9.87497 20.9271 9.87497C21.8727 9.87497 22.625 10.6433 22.625 11.5729V13.4062C22.625 14.349 21.8699 15.1041 20.9271 15.1041C19.8584 15.1041 19.1103 15.5127 18.7675 16.1126C18.4219 16.7173 18.4421 17.5739 18.9739 18.4882L18.9748 18.4897C19.1989 18.8782 19.2559 19.3377 19.1394 19.7746C19.0204 20.2207 18.7249 20.588 18.344 20.8079L14.4527 21.1255ZM14.4527 21.1255L14.5659 21.321C14.5661 21.3214 14.5663 21.3218 14.5666 21.3222C14.761 21.6616 15.0837 21.9009 15.4621 21.9955C15.8264 22.0866 16.213 22.0455 16.5451 21.8477L18.3436 20.8081L14.4527 21.1255ZM5.09392 17.9688L5.09376 17.9687L5.09392 17.9688ZM9.68756 22.5471L9.68755 22.5471L9.68223 22.5485C9.1556 22.6906 8.61858 22.6151 8.16349 22.3421L8.16354 22.342L8.15567 22.3375L6.364 21.3062L6.36341 21.3059C5.84502 21.0084 5.46976 20.525 5.30586 19.933C5.15168 19.3386 5.23033 18.7354 5.52743 18.2176L5.52839 18.2159C5.69953 17.9149 5.82248 17.6055 5.8711 17.3069C5.91942 17.0101 5.89931 16.6863 5.73343 16.4034C5.41632 15.8624 4.72523 15.6771 4.06249 15.6771C2.8178 15.6771 1.80208 14.6613 1.80208 13.4166V11.5833C1.80208 10.3386 2.8178 9.32289 4.06249 9.32289C4.72523 9.32289 5.41632 9.13753 5.73343 8.59658C6.05407 8.04961 5.8612 7.35085 5.52621 6.78027C5.22941 6.26167 5.152 5.64821 5.30627 5.06542L5.30672 5.06368C5.45993 4.47637 5.83213 3.994 6.36037 3.6958L6.36038 3.69581L6.36292 3.69436L8.165 2.66311L8.16503 2.66316L8.17167 2.65922C9.10583 2.10534 10.353 2.42463 10.9238 3.38988L10.9238 3.38989L10.9254 3.39264L11.0484 3.59766C11.3915 4.18907 11.8879 4.6406 12.5156 4.6406C13.1446 4.6406 13.6417 4.18733 13.9848 3.59424C13.9848 3.59418 13.9849 3.59413 13.9849 3.59407L14.098 3.39867C14.0982 3.39829 14.0985 3.39791 14.0987 3.39753C14.6695 2.42523 15.9141 2.10566 16.8584 2.66897L16.8584 2.66902L16.8652 2.6729L18.6568 3.70415L18.6574 3.70449C19.1758 4.00192 19.551 4.48535 19.7149 5.07736C19.8691 5.67173 19.7905 6.27499 19.4934 6.7928L19.4924 6.79449C19.3213 7.09546 19.1983 7.40483 19.1497 7.70349C19.1014 8.00027 19.1215 8.32402 19.2874 8.607C19.6045 9.14794 20.2956 9.33331 20.9583 9.33331C22.203 9.33331 23.2187 10.349 23.2187 11.5937V13.4271C23.2187 14.6717 22.203 15.6875 20.9583 15.6875C20.2956 15.6875 19.6045 15.8728 19.2874 16.4138C18.9668 16.9608 19.1596 17.6595 19.4946 18.2301C19.794 18.7532 19.8767 19.3646 19.7164 19.9383L19.7163 19.9383L19.7141 19.9467C19.5609 20.534 19.1887 21.0164 18.6604 21.3146L18.6579 21.316L16.8591 22.3454C16.534 22.5244 16.1908 22.6146 15.8437 22.6146C15.675 22.6146 15.4986 22.5908 15.3117 22.5468C14.7914 22.402 14.36 22.076 14.085 21.6177L13.962 21.4127C13.6189 20.8213 13.1225 20.3698 12.4948 20.3698C11.8658 20.3698 11.3686 20.8231 11.0255 21.4163L10.913 21.6107C10.9127 21.6112 10.9124 21.6117 10.9121 21.6122C10.6331 22.0848 10.1996 22.4149 9.68756 22.5471Z" stroke="white"/>
</svg>
